<?xml version="1.0" encoding="utf-8"?>
<!-- Generator: Adobe Illustrator 19.0.0, SVG Export Plug-In . SVG Version: 6.00 Build 0)  -->
<svg version="1.1" id="Layer_1" xmlns="http://www.w3.org/2000/svg" xmlns:xlink="http://www.w3.org/1999/xlink" x="0px" y="0px"
	 viewBox="0 0 215 140" style="enable-background:new 0 0 215 140;" xml:space="preserve">
<style type="text/css">
	.st0{fill:none;}
	.st1{fill:#FFC956;}
</style>
<rect id="XMLID_54_" class="st0" width="215" height="140"/>
<g id="XMLID_55_">
	<g id="XMLID_56_">
		<path id="XMLID_1_" class="st1" d="M150.4,15.4l-0.1,0.2c-1.2,2.3-4,3.2-6.3,2v0c-2.3-1.2-3.2-4-2-6.3l0.1-0.2
			c1.2-2.3,4-3.2,6.3-2v0C150.7,10.2,151.6,13.1,150.4,15.4z"/>
		<path id="XMLID_77_" class="st1" d="M203.8,50.4c-3.3-7.4-7-12.9-8.5-15c0,0-0.6-0.8-0.6-0.8c-1.4-1.9-3.4-0.6-3.4-0.6
			s-0.5,0.2-0.8,0.4c-3.5,1.8-8.8,5.3-14.1,13.3c-3.1,4.6-8,7.7-13.6,8.5c-1.6,0.2-3.5,0.4-5.6,0.5l-0.1,0l-0.5-14.8
			c0,0,0-17.7-13.1-15.7c0,0-11.3,1.1-9.7,18.6c0.4,4.5,3.2,8.4,7.5,9.9c2.7,1,6.5,1.4,11.6,0.6c0,0,0.2,1.4-2.4,1.6l-24.5,0.6
			l-0.1-2.3c-0.6-13.5-8-21.1-13.3-24.8c-2.7-1.9-6.4-1.1-8.1,1.7l-3,5c10.6,2.1,15.2,12.8,17.2,20.5L100.1,58c0,0-4.2,0.5-6.4-3.5
			c0,0,0.2,5.2,0.3,7.8c0.2,6,0.3,5.5,7.7,5.5l67.8-2.9c0,0,6.6-0.8,10.8-7.3c0,0,4.6,6,14.4,6.4c0.6,0,7.3,0.5,9.4-1.8c0,0,0,0,0,0
			c1.3-1.2,1.7-3.1,1.6-5.1C205.7,54.8,204.8,52.5,203.8,50.4z M151.4,48.8c-10.5-2.1-11.7-6.7-11.7-6.7l0,0
			c-0.2-0.6-0.3-1.3-0.3-1.9c0.2-2.6,2.4-4.5,5-4.3c0.9,0.1,1.6,0.4,2.3,0.8c0,0,0,0,0.1,0c3.6,2.3,5.6,11.3,5.6,11.3L151.4,48.8z
			 M197.1,57.7c0,0-13.7-3.3-11.8-6.6c0,0,3.3-5.3,6.1-6.3c0.4-0.2,0.8-0.2,1.2,0c1.1,0.5,3.6,2.3,5.4,8.8c0,0.1,0.1,0.3,0.1,0.4
			C198.4,54.8,199.2,57.8,197.1,57.7z"/>
		<path id="XMLID_76_" class="st1" d="M141.2,19.5l-0.1,0.2c-1.2,2.3-4,3.2-6.3,2v0c-2.3-1.2-3.2-4-2-6.3l0.1-0.2
			c1.2-2.3,4-3.2,6.3-2v0C141.6,14.3,142.4,17.2,141.2,19.5z"/>
		<g id="XMLID_68_">
			<path id="XMLID_74_" class="st1" d="M87.2,89.6c-0.7-0.4-1.4-0.5-2.2-0.5c-0.7,0-1.4,0.2-2.1,0.4c-0.7,0.3-1.3,0.6-1.9,1
				c-0.6,0.4-1,0.9-1.3,1.4c-0.3,0.5-0.5,1-0.5,1.5c0,0.6,0.4,1.1,1,1.4c0.7,0.3,1.4,0.5,2.2,0.5c0.6,0,1.2-0.1,1.9-0.4
				c0.7-0.2,1.3-0.5,1.9-0.9c0.6-0.4,1-0.8,1.4-1.3c0.4-0.5,0.5-1.1,0.5-1.7C88.2,90.4,87.9,89.9,87.2,89.6z"/>
			<path id="XMLID_72_" class="st1" d="M146.5,87.2c-0.7-0.4-1.4-0.5-2.2-0.5c-0.7,0-1.4,0.2-2.1,0.4c-0.7,0.3-1.3,0.6-1.9,1
				c-0.6,0.4-1,0.9-1.3,1.4c-0.3,0.5-0.5,1-0.5,1.5c0,0.6,0.4,1.1,1,1.4c0.7,0.3,1.4,0.5,2.2,0.5c0.6,0,1.2-0.1,1.9-0.4
				c0.7-0.2,1.3-0.5,1.9-0.9c0.6-0.4,1-0.8,1.4-1.3c0.4-0.5,0.6-1.1,0.5-1.7C147.5,88.1,147.2,87.6,146.5,87.2z"/>
			<path id="XMLID_70_" class="st1" d="M206,84.8c-0.7-0.4-1.4-0.5-2.2-0.5c-0.7,0-1.4,0.2-2.1,0.4c-0.7,0.3-1.3,0.6-1.9,1
				c-0.6,0.4-1,0.9-1.3,1.4c-0.3,0.5-0.5,1-0.5,1.5c0,0.6,0.4,1.1,1,1.4c0.7,0.3,1.4,0.5,2.2,0.5c0.6,0,1.2-0.1,1.9-0.4
				c0.7-0.2,1.3-0.5,1.9-0.9c0.6-0.4,1-0.8,1.4-1.3c0.4-0.5,0.5-1.1,0.5-1.7C207,85.7,206.7,85.2,206,84.8z"/>
			<path id="XMLID_69_" class="st1" d="M70.8,115.8C70.8,115.8,70.8,115.8,70.8,115.8C70.8,115.8,70.8,115.8,70.8,115.8L70.8,115.8z
				"/>
		</g>
		<path id="XMLID_62_" class="st1" d="M205.5,104.3c-0.2,0.5-0.6,1-1.1,1.6c-0.5,0.6-1.2,1.2-1.8,1.7c-0.7,0.5-1.4,1-2.1,1.4
			c-0.7,0.4-1.3,0.6-1.9,0.6c-0.5,0-0.8-0.2-0.8-0.7c0-0.2,0.1-0.5,0.2-0.9l4.6-11.5l-6.1-3l-4.5,11.3l0,0c-0.2,0.5-0.6,1-1.2,1.6
			c-0.5,0.6-1.2,1.2-1.8,1.7c-0.7,0.5-1.4,1-2.1,1.4c-0.7,0.4-1.3,0.6-1.8,0.6c-0.6,0-0.9-0.2-0.9-0.7c0-0.3,0-0.6,0.2-0.9l4.6-11.5
			l-6.1-3l-6.4,16.1c-0.6,1.4-1.2,2.1-1.9,2.2c-0.4,0-0.7-0.2-0.7-0.7c0-0.5,0.1-1,0.3-1.6l5.6-14l-7.1,0.3l-4,10l0,0
			c-0.2,0.4-0.5,0.7-0.9,1.1c-0.5,0.6-1.2,1.2-1.8,1.7c-0.7,0.5-1.4,1-2.1,1.4c-0.7,0.4-1.3,0.6-1.8,0.6c-0.6,0-0.9-0.2-0.9-0.7
			c0-0.3,0.1-0.6,0.2-0.9l5.2-13l-5.9,0.2l-0.4,1.1c-0.3-0.5-0.7-1-1.3-1.3c-0.6-0.3-1.6-0.5-2.9-0.4c-0.9,0-1.7,0.2-2.5,0.6
			c-0.8,0.3-1.7,0.9-2.5,1.6c-0.8,0.8-1.6,1.8-2.4,3c-0.8,1.2-1.6,2.8-2.3,4.6c-0.2,0.4-0.3,0.8-0.5,1.2c0,0,0,0,0,0
			c-0.2,0.4-0.5,0.8-0.9,1.2c-0.5,0.6-1.2,1.2-1.8,1.7c-0.7,0.5-1.4,1-2.1,1.4c-0.7,0.4-1.3,0.6-1.9,0.6c-0.5,0-0.8-0.2-0.8-0.7
			c0-0.2,0.1-0.5,0.2-0.9l4.6-11.5l-6.1-3l-4.5,11.3l0,0c-0.4,0.7-0.8,1.3-1.4,2c-0.6,0.6-1.2,1.2-1.9,1.7c-0.7,0.5-1.3,0.9-2,1.2
			c-0.7,0.3-1.2,0.5-1.6,0.5c-0.5,0-0.7-0.2-0.7-0.6c0-0.3,0-0.6,0.2-1l11.9-29.1l-7.8,0.3l-6.4,15.9c-0.3-0.1-0.6-0.3-1-0.4
			c-0.4-0.1-1-0.1-1.7-0.1c-1.8,0.1-3.6,0.9-5.3,2.4c-1.7,1.5-3.3,4-4.7,7.4l-0.5,1.2l0,0c-0.3,0.5-0.7,1-1.2,1.5
			c-0.6,0.6-1.2,1.2-1.9,1.7c-0.7,0.5-1.3,0.9-2,1.2c-0.7,0.3-1.2,0.5-1.6,0.5c-0.5,0-0.7-0.2-0.7-0.6c0-0.3,0.1-0.6,0.2-1
			l11.9-29.1l-7.8,0.3l-6.4,15.9c-0.3-0.1-0.6-0.3-1-0.4c-0.4-0.1-1-0.1-1.7-0.1c-1.8,0.1-3.6,0.9-5.3,2.4c-1.7,1.5-3.3,4-4.7,7.4
			l-0.5,1.3l0,0c-0.2,0.3-0.5,0.7-0.8,1.1c-0.5,0.6-1.2,1.2-1.8,1.7c-0.7,0.5-1.4,1-2.1,1.4c-0.7,0.4-1.3,0.6-1.9,0.6
			c-0.5,0-0.8-0.2-0.8-0.7c0-0.2,0.1-0.5,0.2-0.9l4.6-11.5l-6.1-3l-4.6,11.3c0,0,0,0,0,0c0,0,0,0,0,0c0,0,0,0,0,0c0,0,0,0,0,0.1
			c-0.2,0.3-1,1.4-2.1,2.6l0,0c-1.2,1.2-2.8,2.6-4.7,3.1l0,0c-0.1,0-0.1,0-0.2,0c-1.3,0.3-2.7,0.1-3.9-0.7c-0.2-0.1-0.4-0.3-0.6-0.4
			c12-18.1,8-34.1,2-44.9c0.7,0,1.4,0,1.9,0c7-0.1,7.7-6.4,7.7-6.4c0,0,0,0,0,0.1c0,0,0-0.1,0-0.1c-1.8-8.6-3.7-15.2-7.1-16.6
			c3.2,2.3,4.6,9.4,2.3,11.3c-1.3,1.1-2.8,1.8-4.5,2c-2.3,0.2-5.8-1-8.5-2.4c0,0,0,0,0,0c-1.2-0.6-2.2-1.2-2.9-1.7c0,0,0,0,0,0
			c0,0,0,0,0,0c0,0,0,0,0,0c0,0,0,0,0,0c0,0,0,0,0,0l-0.9,1.7l-3.4,6c7,6.7,9.7,16.7,10.8,23.4c1.2,7.1-0.1,14.5-3.8,20.7
			c-0.5,0.8-0.9,1.5-1.4,2.2c-12.2-7.1-32.7-16.7-41.3-8.5c-1,1-1.8,2.2-2.5,3.6c0,0-2.5,5.3-1.7,11.2l0,0c0,0.2,0.1,0.5,0.1,0.7
			c2.1,10.4,7.7,13.9,14.6,14.9c8.4,1.3,16.6-0.9,22.4-3.1c5-1.9,9.5-5.2,12.9-9.4c0.1-0.1,0.2-0.2,0.2-0.3c1,0.5,2,1.1,3,1.6
			c0,0,4.2,2.1,9.2-4.3l0-0.1l0,0l0-0.1c0,0,0,0,0,0c0,0.3-0.1,0.6-0.1,0.9c0,0.9,0.4,1.7,1.1,2.2c0.7,0.5,1.5,0.8,2.5,0.7
			c1.3,0,2.6-0.4,4.1-0.9c1.5-0.6,2.9-1.3,4.2-2.2c0.9-0.6,1.7-1.1,2.4-1.8c0,0.2,0,0.4,0,0.6c0.1,1.3,0.5,2.3,1.3,2.9
			c0.8,0.6,1.8,0.9,2.9,0.8c0.7,0,1.3-0.1,1.8-0.2c0.5-0.1,1-0.2,1.4-0.3c0.4-0.1,0.8-0.3,1.2-0.5c0.4-0.2,0.7-0.5,1-0.7
			c0.2,0.4,0.5,0.8,0.9,1.1c0.3,0.3,0.9,0.4,1.7,0.4c1.3,0,2.6-0.4,4.1-1c1.5-0.6,2.9-1.3,4.2-2.2c0.8-0.6,1.6-1.1,2.3-1.7
			c0,0.2,0,0.5,0,0.7c0.1,1.3,0.5,2.3,1.3,2.9c0.8,0.6,1.8,0.9,2.9,0.8c0.7,0,1.3-0.1,1.8-0.2c0.5-0.1,1-0.2,1.4-0.3
			c0.4-0.1,0.8-0.3,1.2-0.5c0.4-0.2,0.7-0.5,1-0.7c0.2,0.4,0.5,0.8,0.9,1.1c0.3,0.3,0.9,0.4,1.7,0.4c1.3,0,2.6-0.4,4.1-1
			c1.5-0.6,2.9-1.3,4.2-2.2c0.6-0.4,1.1-0.8,1.7-1.2c-0.1,0.3-0.1,0.6-0.1,0.9c0,0.9,0.4,1.7,1.1,2.2c0.7,0.5,1.5,0.8,2.5,0.7
			c1.3,0,2.6-0.4,4.1-0.9c1.5-0.6,2.9-1.3,4.2-2.2c0.9-0.6,1.7-1.1,2.4-1.8c0,0.2,0,0.3,0,0.5c0.1,1.3,0.5,2.3,1.4,2.9
			c0.9,0.6,2.1,0.9,3.5,0.8c0.7,0,1.2-0.1,1.5-0.1c0.3,0,0.5-0.1,0.7-0.2l-3.4,8.7l7.4-0.3l4.1-10.3c0.4,0.3,0.9,0.4,1.4,0.4
			c0.7,0,1.6-0.3,2.5-0.8c1-0.5,1.9-1.1,2.9-1.8c0.3-0.2,0.6-0.4,0.8-0.7c0,0.2,0,0.5,0,0.7c0,1.1,0.4,2,1.1,2.6
			c0.7,0.6,1.8,0.9,3.2,0.8c1.5-0.1,2.7-0.3,3.7-0.7c1-0.4,1.8-0.9,2.3-1.3c0.2,0.4,0.5,0.8,1,1.2c0.5,0.4,1.2,0.5,2.1,0.5
			c1,0,2.2-0.4,3.6-0.9c1.3-0.6,2.6-1.3,3.9-2.2c0.5-0.4,1-0.7,1.5-1.1c0,0.3-0.1,0.6,0,0.8c0,0.9,0.4,1.7,1.1,2.2
			c0.7,0.5,1.5,0.8,2.5,0.7c1.3,0,2.6-0.4,4.1-0.9c1.5-0.6,2.9-1.3,4.2-2.2c1.3-0.9,2.5-1.8,3.5-2.8c1-1,1.7-2,2.1-2.9L205.5,104.3z
			 M31.5,123.3c-12,3.1-15.9-4.3-17.1-8.8c-0.6-2.2,0.4-4.7,2.4-5.8c1.3-0.7,2.8-1.2,4.7-1.4c0,0,7.7-2.2,28.1,6.9
			C41.4,121.8,31.5,123.3,31.5,123.3z M93.6,114.2c-0.4,1-1,1.5-1.6,1.5c-0.4,0-0.6-0.2-0.6-0.6c0-0.3,0.1-0.7,0.3-1.2l4.2-10.7
			c0.2-0.6,0.5-1,0.8-1.2c0.3-0.2,0.6-0.3,1-0.3c0.4,0,0.6,0.1,0.8,0.3L93.6,114.2z M116.5,113.2c-0.4,1-0.9,1.5-1.6,1.5
			c-0.4,0-0.6-0.2-0.6-0.6c0-0.3,0.1-0.7,0.3-1.2l4.2-10.7c0.2-0.6,0.5-1,0.8-1.2c0.3-0.2,0.6-0.3,1-0.3c0.4,0,0.7,0.1,0.8,0.3
			L116.5,113.2z M157.6,100.8l-4.1,10.2c-0.6,1.4-1.2,2.1-1.9,2.2c-0.5,0-0.8-0.2-0.8-0.7c0-0.2,0-0.4,0.1-0.6
			c0.1-0.2,0.2-0.6,0.3-1l4.3-10.4c0.3-0.7,0.8-1,1.5-1.1c0.3,0,0.5,0.1,0.6,0.2c0.1,0.1,0.2,0.3,0.2,0.5
			C157.8,100.3,157.7,100.6,157.6,100.8z"/>
		<path id="XMLID_57_" class="st1" d="M88.5,68.5l-0.8-17.7c0,0,0-7-2.7-9.7l-5.6,4c0,0,4.7,4.2,5.5,10c0,0,0.7,3.8-5.5,3.8
			c0,0-7.1,1-8.2-15.9l-4.9,3.4c0,0,4.2,2.3,7.1,16.6c0,0,0.2,5.8,9.3,6C85.8,69.1,88.5,68.5,88.5,68.5z M87,68.7
			c-0.1,0-0.3,0-0.4,0C86.7,68.7,86.8,68.7,87,68.7z M85.5,68.9c-0.1,0-0.3,0-0.4,0C85.3,68.9,85.4,68.9,85.5,68.9z M83.9,69
			c0.1,0,0.2,0,0.3,0C84,69,83.9,69,83.9,69z"/>
	</g>
</g>
</svg>
