<?xml version="1.0" encoding="utf-8"?>
<!-- Generator: Adobe Illustrator 19.0.0, SVG Export Plug-In . SVG Version: 6.00 Build 0)  -->
<svg version="1.1" id="Layer_1" xmlns="http://www.w3.org/2000/svg" xmlns:xlink="http://www.w3.org/1999/xlink" x="0px" y="0px"
	 viewBox="0 0 26.9 26.9" style="enable-background:new 0 0 26.9 26.9;" xml:space="preserve">
<style type="text/css">
	.st0{fill:#181616;}
</style>
<g id="XMLID_1_">
	<path id="XMLID_9_" class="st0" d="M10.7,11.5c0.3-0.2,0.5-0.5,0.5-1c0-0.5-0.2-0.9-0.6-1.1c-0.4-0.1-0.8-0.2-1.4-0.2H7.1v2.5h2.4
		C10,11.8,10.4,11.7,10.7,11.5z"/>
	<path id="XMLID_11_" class="st0" d="M18.8,11.7c-0.6,0-1,0.2-1.3,0.5c-0.3,0.3-0.5,0.7-0.6,1.3h3.7v0c0-0.6-0.2-1-0.6-1.3
		C19.7,11.8,19.3,11.7,18.8,11.7z"/>
	<path id="XMLID_12_" class="st0" d="M10.7,13.9c-0.3-0.1-0.7-0.2-1.1-0.2H7.1v3.1h2.4c0.5,0,0.9-0.1,1.2-0.2
		c0.5-0.2,0.8-0.7,0.8-1.4C11.4,14.5,11.2,14.1,10.7,13.9z"/>
	<path id="XMLID_21_" class="st0" d="M13.5,0C6,0,0,6,0,13.5s6,13.5,13.5,13.5s13.5-6,13.5-13.5S20.9,0,13.5,0z M16.5,7.7h4.6v1.1h0
		h-4.6V7.7z M13.3,17.1c-0.2,0.4-0.5,0.7-0.8,0.9c-0.4,0.3-0.8,0.5-1.3,0.6c-0.5,0.1-1,0.2-1.6,0.2H4.4V7.2H10c1.4,0,2.4,0.4,3,1.2
		c0.4,0.5,0.5,1.1,0.5,1.8c0,0.7-0.2,1.3-0.5,1.7c-0.2,0.2-0.5,0.5-0.9,0.7c0.6,0.2,1,0.5,1.3,1c0.3,0.5,0.4,1,0.4,1.7
		C13.8,15.9,13.7,16.5,13.3,17.1z M22.9,14.8h-6c0,0.8,0.3,1.4,0.9,1.7c0.3,0.2,0.7,0.3,1.2,0.3c0.5,0,0.9-0.1,1.2-0.4
		c0.2-0.1,0.3-0.3,0.4-0.6h2.2c-0.1,0.5-0.3,1-0.8,1.5c-0.7,0.8-1.8,1.2-3.1,1.2c-1.1,0-2.1-0.3-2.9-1c-0.8-0.7-1.3-1.8-1.3-3.3
		c0-1.4,0.4-2.5,1.1-3.3c0.8-0.8,1.7-1.1,2.9-1.1c0.7,0,1.4,0.1,1.9,0.4c0.6,0.3,1,0.7,1.4,1.2c0.3,0.5,0.6,1.1,0.7,1.7
		C22.8,13.6,22.9,14.1,22.9,14.8z"/>
</g>
</svg>
