<?xml version="1.0" encoding="utf-8"?>
<!-- Generator: Adobe Illustrator 19.0.0, SVG Export Plug-In . SVG Version: 6.00 Build 0)  -->
<svg version="1.1" id="Layer_1" xmlns="http://www.w3.org/2000/svg" xmlns:xlink="http://www.w3.org/1999/xlink" x="0px" y="0px"
	 viewBox="-626 387.1 26.9 26.9" style="enable-background:new -626 387.1 26.9 26.9;" xml:space="preserve">
<style type="text/css">
	.st0{fill-rule:evenodd;clip-rule:evenodd;fill:#181616;}
</style>
<path id="XMLID_2_" class="st0" d="M-612.6,387.4c-7.4,0-13.4,6-13.4,13.5c0,5.9,3.9,11,9.2,12.8c0.7,0.1,0.9-0.3,0.9-0.6
	c0-0.3,0-1.2,0-2.3c-3.7,0.8-4.5-1.8-4.5-1.8c-0.6-1.6-1.5-2-1.5-2c-1.2-0.8,0.1-0.8,0.1-0.8c1.3,0.1,2.1,1.4,2.1,1.4
	c1.2,2.1,3.1,1.5,3.9,1.1c0.1-0.9,0.5-1.5,0.9-1.8c-3-0.3-6.1-1.5-6.1-6.6c0-1.5,0.5-2.7,1.4-3.6c-0.1-0.3-0.6-1.7,0.1-3.6
	c0,0,1.1-0.4,3.7,1.4c1.1-0.3,2.2-0.4,3.4-0.5c1.1,0,2.3,0.2,3.4,0.5c2.6-1.7,3.7-1.4,3.7-1.4c0.7,1.9,0.3,3.2,0.1,3.6
	c0.9,0.9,1.4,2.1,1.4,3.6c0,5.2-3.1,6.3-6.1,6.6c0.5,0.4,0.9,1.2,0.9,2.5c0,1.8,0,3.2,0,3.7c0,0.4,0.2,0.8,0.9,0.6
	c5.3-1.8,9.2-6.8,9.2-12.8C-599.1,393.5-605.1,387.4-612.6,387.4z"/>
</svg>
