<?xml version="1.0" encoding="utf-8"?>
<!-- Generator: Adobe Illustrator 19.0.0, SVG Export Plug-In . SVG Version: 6.00 Build 0)  -->
<svg version="1.1" id="Layer_1" xmlns="http://www.w3.org/2000/svg" xmlns:xlink="http://www.w3.org/1999/xlink" x="0px" y="0px"
	 viewBox="-626 387.1 26.9 26.9" style="enable-background:new -626 387.1 26.9 26.9;" xml:space="preserve">
<style type="text/css">
	.st0{fill:#181616;}
</style>
<g id="XMLID_17_">
	<path id="XMLID_3_" class="st0" d="M-612.6,387.1c-7.4,0-13.5,6-13.5,13.5c0,7.4,6,13.5,13.5,13.5c7.4,0,13.5-6,13.5-13.5
		C-599.1,393.1-605.1,387.1-612.6,387.1L-612.6,387.1z M-615.9,407.1h-3.4v-11.8h3.4V407.1z M-617.5,394.6c-0.9,0-1.6-0.7-1.6-1.6
		c0-0.9,0.7-1.6,1.6-1.6c0.9,0,1.6,0.7,1.6,1.6C-615.9,393.9-616.6,394.6-617.5,394.6L-617.5,394.6z M-604.1,407.1h-3.4v-7.3
		c0-0.9-0.2-1.5-1.3-1.5c-1.7,0-2.1,1.5-2.1,1.5v7.3h-3.4v-11.8h3.4v1.1c0.5-0.4,1.7-1.1,3.4-1.1c1.1,0,3.4,0.7,3.4,4.6V407.1z
		 M-604.1,407.1"/>
</g>
</svg>
